<svg width="350" height="140" viewBox="0 0 350 140" fill="none" xmlns="http://www.w3.org/2000/svg">
<mask id="mask0" mask-type="alpha" maskUnits="userSpaceOnUse" x="0" y="0" width="350" height="140">
<path d="M0 0H350V140H0V0Z" fill="white"/>
</mask>
<g mask="url(#mask0)">
<path d="M0 0H350V140H0V0Z" fill="#AB0C32"/>
<g opacity="0.5">
<g opacity="0.5">
<path opacity="0.5" d="M34.645 10.8C34.645 18.9738 41.2864 25.6 49.479 25.6C57.6716 25.6 64.313 18.9738 64.313 10.8C64.313 2.62618 57.6716 -4 49.479 -4C41.2864 -4 34.645 2.62618 34.645 10.8Z" fill="url(#paint0_linear)"/>
<path opacity="0.5" d="M3.83397 -4.00002C-4.35862 -4.00002 -11 2.62616 -11 10.8C-11 18.9738 -4.35862 25.6 3.83397 25.6C12.0266 25.6 18.668 18.9738 18.668 10.8C18.668 2.62616 12.0266 -4.00002 3.83397 -4.00002Z" fill="url(#paint1_linear)"/>
<path opacity="0.5" d="M140.767 25.6C148.96 25.6 155.601 18.9738 155.601 10.8C155.601 2.62619 148.96 -4 140.767 -4C132.574 -4 125.933 2.62619 125.933 10.8C125.933 18.9738 132.574 25.6 140.767 25.6Z" fill="url(#paint2_linear)"/>
<path opacity="0.5" d="M109.957 10.8C109.957 2.62616 103.316 -4.00002 95.1231 -4.00002C86.9305 -4.00002 80.2891 2.62616 80.2891 10.8C80.2891 18.9738 86.9305 25.6 95.1231 25.6C103.316 25.6 109.957 18.9738 109.957 10.8Z" fill="url(#paint3_linear)"/>
<path opacity="0.5" d="M217.221 10.8C217.221 18.9738 223.862 25.6 232.055 25.6C240.248 25.6 246.889 18.9738 246.889 10.8C246.889 2.62617 240.248 -4 232.055 -4C223.862 -4 217.221 2.62617 217.221 10.8Z" fill="url(#paint4_linear)"/>
<path opacity="0.5" d="M186.411 -4.00002C178.218 -4.00002 171.577 2.62616 171.577 10.8C171.577 18.9738 178.218 25.6 186.411 25.6C194.604 25.6 201.245 18.9738 201.245 10.8C201.245 2.62616 194.604 -4.00002 186.411 -4.00002Z" fill="url(#paint5_linear)"/>
<path opacity="0.5" d="M323.344 25.6C331.537 25.6 338.178 18.9738 338.178 10.8C338.178 2.62619 331.537 -4 323.344 -4C315.151 -4 308.51 2.62619 308.51 10.8C308.51 18.9738 315.151 25.6 323.344 25.6Z" fill="url(#paint6_linear)"/>
<path opacity="0.5" d="M292.534 10.801C292.534 2.62718 285.893 -3.99899 277.7 -3.99899C269.507 -3.99899 262.866 2.62718 262.866 10.801C262.866 18.9748 269.507 25.601 277.7 25.601C285.893 25.601 292.534 18.9748 292.534 10.801Z" fill="url(#paint7_linear)"/>
</g>
<g opacity="0.5">
<path opacity="0.5" d="M34.645 106.43C34.645 114.604 41.2864 121.23 49.479 121.23C57.6716 121.23 64.313 114.604 64.313 106.43C64.313 98.2562 57.6716 91.63 49.479 91.63C41.2864 91.63 34.645 98.2562 34.645 106.43Z" fill="url(#paint8_linear)"/>
<path opacity="0.5" d="M3.83397 91.63C-4.35862 91.63 -11 98.2562 -11 106.43C-11 114.604 -4.35862 121.23 3.83397 121.23C12.0266 121.23 18.668 114.604 18.668 106.43C18.668 98.2562 12.0266 91.63 3.83397 91.63Z" fill="url(#paint9_linear)"/>
<path opacity="0.5" d="M140.767 121.23C148.96 121.23 155.601 114.604 155.601 106.43C155.601 98.2562 148.96 91.63 140.767 91.63C132.574 91.63 125.933 98.2562 125.933 106.43C125.933 114.604 132.574 121.23 140.767 121.23Z" fill="url(#paint10_linear)"/>
<path opacity="0.5" d="M109.957 106.43C109.957 98.2562 103.316 91.63 95.1231 91.63C86.9305 91.63 80.2891 98.2562 80.2891 106.43C80.2891 114.604 86.9305 121.23 95.1231 121.23C103.316 121.23 109.957 114.604 109.957 106.43Z" fill="url(#paint11_linear)"/>
<path opacity="0.5" d="M217.221 106.43C217.221 114.604 223.862 121.23 232.055 121.23C240.248 121.23 246.889 114.604 246.889 106.43C246.889 98.2562 240.248 91.63 232.055 91.63C223.862 91.63 217.221 98.2562 217.221 106.43Z" fill="url(#paint12_linear)"/>
<path opacity="0.5" d="M186.411 91.63C178.218 91.63 171.577 98.2562 171.577 106.43C171.577 114.604 178.218 121.23 186.411 121.23C194.604 121.23 201.245 114.604 201.245 106.43C201.245 98.2562 194.604 91.63 186.411 91.63Z" fill="url(#paint13_linear)"/>
<path opacity="0.5" d="M323.344 121.23C331.537 121.23 338.178 114.604 338.178 106.43C338.178 98.2562 331.537 91.63 323.344 91.63C315.151 91.63 308.51 98.2562 308.51 106.43C308.51 114.604 315.151 121.23 323.344 121.23Z" fill="url(#paint14_linear)"/>
<path opacity="0.5" d="M292.534 106.431C292.534 98.2572 285.893 91.631 277.7 91.631C269.507 91.631 262.866 98.2572 262.866 106.431C262.866 114.605 269.507 121.231 277.7 121.231C285.893 121.231 292.534 114.605 292.534 106.431Z" fill="url(#paint15_linear)"/>
</g>
<g opacity="0.5">
<path opacity="0.5" d="M64.313 58.615C64.313 50.4412 57.6716 43.815 49.479 43.815C41.2864 43.815 34.645 50.4412 34.645 58.615C34.645 66.7888 41.2864 73.415 49.479 73.415C57.6716 73.415 64.313 66.7888 64.313 58.615Z" fill="url(#paint16_linear)"/>
<path opacity="0.5" d="M3.834 73.415C12.0266 73.415 18.668 66.7888 18.668 58.615C18.668 50.4412 12.0266 43.815 3.834 43.815C-4.35859 43.815 -11 50.4412 -11 58.615C-11 66.7888 -4.35859 73.415 3.834 73.415Z" fill="url(#paint17_linear)"/>
<path opacity="0.5" d="M140.767 73.415C148.96 73.415 155.601 66.7888 155.601 58.615C155.601 50.4412 148.96 43.815 140.767 43.815C132.574 43.815 125.933 50.4412 125.933 58.615C125.933 66.7888 132.574 73.415 140.767 73.415Z" fill="url(#paint18_linear)"/>
<path opacity="0.5" d="M80.289 58.615C80.289 66.7888 86.9304 73.415 95.123 73.415C103.316 73.415 109.957 66.7888 109.957 58.615C109.957 50.4412 103.316 43.815 95.123 43.815C86.9304 43.815 80.289 50.4412 80.289 58.615Z" fill="url(#paint19_linear)"/>
<path opacity="0.5" d="M246.889 58.615C246.889 50.4412 240.248 43.815 232.055 43.815C223.862 43.815 217.221 50.4412 217.221 58.615C217.221 66.7888 223.862 73.415 232.055 73.415C240.248 73.415 246.889 66.7888 246.889 58.615Z" fill="url(#paint20_linear)"/>
<path opacity="0.5" d="M186.411 73.415C194.604 73.415 201.245 66.7888 201.245 58.615C201.245 50.4412 194.604 43.815 186.411 43.815C178.218 43.815 171.577 50.4412 171.577 58.615C171.577 66.7888 178.218 73.415 186.411 73.415Z" fill="url(#paint21_linear)"/>
<path opacity="0.5" d="M323.344 73.415C331.537 73.415 338.178 66.7888 338.178 58.615C338.178 50.4412 331.537 43.815 323.344 43.815C315.151 43.815 308.51 50.4412 308.51 58.615C308.51 66.7888 315.151 73.415 323.344 73.415Z" fill="url(#paint22_linear)"/>
<path opacity="0.5" d="M262.866 58.614C262.866 66.7878 269.507 73.414 277.7 73.414C285.893 73.414 292.534 66.7878 292.534 58.614C292.534 50.4402 285.893 43.814 277.7 43.814C269.507 43.814 262.866 50.4402 262.866 58.614Z" fill="url(#paint23_linear)"/>
</g>
<g opacity="0.5">
<path opacity="0.5" d="M57.467 33.57C57.467 41.7438 64.1084 48.37 72.301 48.37C80.4936 48.37 87.135 41.7438 87.135 33.57C87.135 25.3962 80.4936 18.77 72.301 18.77C64.1084 18.77 57.467 25.3962 57.467 33.57Z" fill="url(#paint24_linear)"/>
<path opacity="0.5" d="M26.656 18.77C18.4634 18.77 11.822 25.3962 11.822 33.57C11.822 41.7438 18.4634 48.37 26.656 48.37C34.8486 48.37 41.49 41.7438 41.49 33.57C41.49 25.3962 34.8486 18.77 26.656 18.77Z" fill="url(#paint25_linear)"/>
<path opacity="0.5" d="M163.589 48.37C171.782 48.37 178.423 41.7438 178.423 33.57C178.423 25.3962 171.782 18.77 163.589 18.77C155.396 18.77 148.755 25.3962 148.755 33.57C148.755 41.7438 155.396 48.37 163.589 48.37Z" fill="url(#paint26_linear)"/>
<path opacity="0.5" d="M132.779 33.57C132.779 25.3962 126.138 18.77 117.945 18.77C109.752 18.77 103.111 25.3962 103.111 33.57C103.111 41.7438 109.752 48.37 117.945 48.37C126.138 48.37 132.779 41.7438 132.779 33.57Z" fill="url(#paint27_linear)"/>
<path opacity="0.5" d="M240.043 33.57C240.043 41.7438 246.684 48.37 254.877 48.37C263.07 48.37 269.711 41.7438 269.711 33.57C269.711 25.3962 263.07 18.77 254.877 18.77C246.684 18.77 240.043 25.3962 240.043 33.57Z" fill="url(#paint28_linear)"/>
<path opacity="0.5" d="M209.233 18.77C201.04 18.77 194.399 25.3962 194.399 33.57C194.399 41.7438 201.04 48.37 209.233 48.37C217.426 48.37 224.067 41.7438 224.067 33.57C224.067 25.3962 217.426 18.77 209.233 18.77Z" fill="url(#paint29_linear)"/>
<path opacity="0.5" d="M346.166 48.37C354.359 48.37 361 41.7438 361 33.57C361 25.3962 354.359 18.77 346.166 18.77C337.973 18.77 331.332 25.3962 331.332 33.57C331.332 41.7438 337.973 48.37 346.166 48.37Z" fill="url(#paint30_linear)"/>
<path opacity="0.5" d="M315.356 33.571C315.356 25.3972 308.715 18.771 300.522 18.771C292.329 18.771 285.688 25.3972 285.688 33.571C285.688 41.7448 292.329 48.371 300.522 48.371C308.715 48.371 315.356 41.7448 315.356 33.571Z" fill="url(#paint31_linear)"/>
</g>
<g opacity="0.5">
<path opacity="0.5" d="M57.467 129.2C57.467 137.374 64.1084 144 72.301 144C80.4936 144 87.135 137.374 87.135 129.2C87.135 121.026 80.4936 114.4 72.301 114.4C64.1084 114.4 57.467 121.026 57.467 129.2Z" fill="url(#paint32_linear)"/>
<path opacity="0.5" d="M26.656 114.4C18.4634 114.4 11.822 121.026 11.822 129.2C11.822 137.374 18.4634 144 26.656 144C34.8486 144 41.49 137.374 41.49 129.2C41.49 121.026 34.8486 114.4 26.656 114.4Z" fill="url(#paint33_linear)"/>
<path opacity="0.5" d="M163.589 144C171.782 144 178.423 137.374 178.423 129.2C178.423 121.026 171.782 114.4 163.589 114.4C155.396 114.4 148.755 121.026 148.755 129.2C148.755 137.374 155.396 144 163.589 144Z" fill="url(#paint34_linear)"/>
<path opacity="0.5" d="M132.779 129.2C132.779 121.026 126.138 114.4 117.945 114.4C109.752 114.4 103.111 121.026 103.111 129.2C103.111 137.374 109.752 144 117.945 144C126.138 144 132.779 137.374 132.779 129.2Z" fill="url(#paint35_linear)"/>
<path opacity="0.5" d="M240.043 129.2C240.043 137.374 246.684 144 254.877 144C263.07 144 269.711 137.374 269.711 129.2C269.711 121.026 263.07 114.4 254.877 114.4C246.684 114.4 240.043 121.026 240.043 129.2Z" fill="url(#paint36_linear)"/>
<path opacity="0.5" d="M209.233 114.4C201.04 114.4 194.399 121.026 194.399 129.2C194.399 137.374 201.04 144 209.233 144C217.426 144 224.067 137.374 224.067 129.2C224.067 121.026 217.426 114.4 209.233 114.4Z" fill="url(#paint37_linear)"/>
<path opacity="0.5" d="M346.166 144C354.359 144 361 137.374 361 129.2C361 121.026 354.359 114.4 346.166 114.4C337.973 114.4 331.332 121.026 331.332 129.2C331.332 137.374 337.973 144 346.166 144Z" fill="url(#paint38_linear)"/>
<path opacity="0.5" d="M315.356 129.201C315.356 121.027 308.715 114.401 300.522 114.401C292.329 114.401 285.688 121.027 285.688 129.201C285.688 137.375 292.329 144.001 300.522 144.001C308.715 144.001 315.356 137.375 315.356 129.201Z" fill="url(#paint39_linear)"/>
</g>
<g opacity="0.5">
<path opacity="0.5" d="M87.135 81.385C87.135 73.2112 80.4936 66.585 72.301 66.585C64.1084 66.585 57.467 73.2112 57.467 81.385C57.467 89.5588 64.1084 96.185 72.301 96.185C80.4936 96.185 87.135 89.5588 87.135 81.385Z" fill="url(#paint40_linear)"/>
<path opacity="0.5" d="M26.656 96.185C34.8486 96.185 41.49 89.5588 41.49 81.385C41.49 73.2112 34.8486 66.585 26.656 66.585C18.4634 66.585 11.822 73.2112 11.822 81.385C11.822 89.5588 18.4634 96.185 26.656 96.185Z" fill="url(#paint41_linear)"/>
<path opacity="0.5" d="M163.589 96.185C171.782 96.185 178.423 89.5588 178.423 81.385C178.423 73.2112 171.782 66.585 163.589 66.585C155.396 66.585 148.755 73.2112 148.755 81.385C148.755 89.5588 155.396 96.185 163.589 96.185Z" fill="url(#paint42_linear)"/>
<path opacity="0.5" d="M103.111 81.385C103.111 89.5588 109.752 96.185 117.945 96.185C126.138 96.185 132.779 89.5588 132.779 81.385C132.779 73.2112 126.138 66.585 117.945 66.585C109.752 66.585 103.111 73.2112 103.111 81.385Z" fill="url(#paint43_linear)"/>
<path opacity="0.5" d="M269.711 81.385C269.711 73.2112 263.07 66.585 254.877 66.585C246.684 66.585 240.043 73.2112 240.043 81.385C240.043 89.5588 246.684 96.185 254.877 96.185C263.07 96.185 269.711 89.5588 269.711 81.385Z" fill="url(#paint44_linear)"/>
<path opacity="0.5" d="M209.233 96.185C217.426 96.185 224.067 89.5588 224.067 81.385C224.067 73.2112 217.426 66.585 209.233 66.585C201.04 66.585 194.399 73.2112 194.399 81.385C194.399 89.5588 201.04 96.185 209.233 96.185Z" fill="url(#paint45_linear)"/>
<path opacity="0.5" d="M346.166 96.185C354.359 96.185 361 89.5588 361 81.385C361 73.2112 354.359 66.585 346.166 66.585C337.973 66.585 331.332 73.2112 331.332 81.385C331.332 89.5588 337.973 96.185 346.166 96.185Z" fill="url(#paint46_linear)"/>
<path opacity="0.5" d="M285.688 81.384C285.688 89.5578 292.329 96.184 300.522 96.184C308.715 96.184 315.356 89.5578 315.356 81.384C315.356 73.2102 308.715 66.584 300.522 66.584C292.329 66.584 285.688 73.2102 285.688 81.384Z" fill="url(#paint47_linear)"/>
</g>
</g>
</g>
<defs>
<linearGradient id="paint0_linear" x1="64.0819" y1="10.8" x2="34.645" y2="10.8" gradientUnits="userSpaceOnUse">
<stop stop-color="#B48409" stop-opacity="0"/>
<stop offset="0.9994" stop-color="#FF5353"/>
</linearGradient>
<linearGradient id="paint1_linear" x1="3.83397" y1="25.3694" x2="3.83397" y2="-4.00003" gradientUnits="userSpaceOnUse">
<stop stop-color="#B48409" stop-opacity="0"/>
<stop offset="0.9994" stop-color="#FF5353"/>
</linearGradient>
<linearGradient id="paint2_linear" x1="140.767" y1="-3.76942" x2="140.767" y2="25.6" gradientUnits="userSpaceOnUse">
<stop stop-color="#B48409" stop-opacity="0"/>
<stop offset="0.9994" stop-color="#FF5353"/>
</linearGradient>
<linearGradient id="paint3_linear" x1="80.5202" y1="10.8" x2="109.957" y2="10.8" gradientUnits="userSpaceOnUse">
<stop stop-color="#B48409" stop-opacity="0"/>
<stop offset="0.9994" stop-color="#FF5353"/>
</linearGradient>
<linearGradient id="paint4_linear" x1="246.658" y1="10.8" x2="217.221" y2="10.8" gradientUnits="userSpaceOnUse">
<stop stop-color="#B48409" stop-opacity="0"/>
<stop offset="0.9994" stop-color="#FF5353"/>
</linearGradient>
<linearGradient id="paint5_linear" x1="186.411" y1="25.3694" x2="186.411" y2="-4.00003" gradientUnits="userSpaceOnUse">
<stop stop-color="#B48409" stop-opacity="0"/>
<stop offset="0.9994" stop-color="#FF5353"/>
</linearGradient>
<linearGradient id="paint6_linear" x1="323.344" y1="-3.76942" x2="323.344" y2="25.6" gradientUnits="userSpaceOnUse">
<stop stop-color="#B48409" stop-opacity="0"/>
<stop offset="0.9994" stop-color="#FF5353"/>
</linearGradient>
<linearGradient id="paint7_linear" x1="263.097" y1="10.801" x2="292.534" y2="10.801" gradientUnits="userSpaceOnUse">
<stop stop-color="#B48409" stop-opacity="0"/>
<stop offset="0.9994" stop-color="#FF5353"/>
</linearGradient>
<linearGradient id="paint8_linear" x1="64.0819" y1="106.43" x2="34.645" y2="106.43" gradientUnits="userSpaceOnUse">
<stop stop-color="#B48409" stop-opacity="0"/>
<stop offset="0.9994" stop-color="#FF5353"/>
</linearGradient>
<linearGradient id="paint9_linear" x1="3.83397" y1="120.999" x2="3.83397" y2="91.63" gradientUnits="userSpaceOnUse">
<stop stop-color="#B48409" stop-opacity="0"/>
<stop offset="0.9994" stop-color="#FF5353"/>
</linearGradient>
<linearGradient id="paint10_linear" x1="140.767" y1="91.8606" x2="140.767" y2="121.23" gradientUnits="userSpaceOnUse">
<stop stop-color="#B48409" stop-opacity="0"/>
<stop offset="0.9994" stop-color="#FF5353"/>
</linearGradient>
<linearGradient id="paint11_linear" x1="80.5202" y1="106.43" x2="109.957" y2="106.43" gradientUnits="userSpaceOnUse">
<stop stop-color="#B48409" stop-opacity="0"/>
<stop offset="0.9994" stop-color="#FF5353"/>
</linearGradient>
<linearGradient id="paint12_linear" x1="246.658" y1="106.43" x2="217.221" y2="106.43" gradientUnits="userSpaceOnUse">
<stop stop-color="#B48409" stop-opacity="0"/>
<stop offset="0.9994" stop-color="#FF5353"/>
</linearGradient>
<linearGradient id="paint13_linear" x1="186.411" y1="120.999" x2="186.411" y2="91.63" gradientUnits="userSpaceOnUse">
<stop stop-color="#B48409" stop-opacity="0"/>
<stop offset="0.9994" stop-color="#FF5353"/>
</linearGradient>
<linearGradient id="paint14_linear" x1="323.344" y1="91.8606" x2="323.344" y2="121.23" gradientUnits="userSpaceOnUse">
<stop stop-color="#B48409" stop-opacity="0"/>
<stop offset="0.9994" stop-color="#FF5353"/>
</linearGradient>
<linearGradient id="paint15_linear" x1="263.097" y1="106.431" x2="292.534" y2="106.431" gradientUnits="userSpaceOnUse">
<stop stop-color="#B48409" stop-opacity="0"/>
<stop offset="0.9994" stop-color="#FF5353"/>
</linearGradient>
<linearGradient id="paint16_linear" x1="34.8761" y1="58.615" x2="64.313" y2="58.615" gradientUnits="userSpaceOnUse">
<stop stop-color="#B48409" stop-opacity="0"/>
<stop offset="0.9994" stop-color="#FF5353"/>
</linearGradient>
<linearGradient id="paint17_linear" x1="3.834" y1="44.0456" x2="3.834" y2="73.415" gradientUnits="userSpaceOnUse">
<stop stop-color="#B48409" stop-opacity="0"/>
<stop offset="0.9994" stop-color="#FF5353"/>
</linearGradient>
<linearGradient id="paint18_linear" x1="140.767" y1="44.0456" x2="140.767" y2="73.415" gradientUnits="userSpaceOnUse">
<stop stop-color="#B48409" stop-opacity="0"/>
<stop offset="0.9994" stop-color="#FF5353"/>
</linearGradient>
<linearGradient id="paint19_linear" x1="109.726" y1="58.615" x2="80.289" y2="58.615" gradientUnits="userSpaceOnUse">
<stop stop-color="#B48409" stop-opacity="0"/>
<stop offset="0.9994" stop-color="#FF5353"/>
</linearGradient>
<linearGradient id="paint20_linear" x1="217.452" y1="58.615" x2="246.889" y2="58.615" gradientUnits="userSpaceOnUse">
<stop stop-color="#B48409" stop-opacity="0"/>
<stop offset="0.9994" stop-color="#FF5353"/>
</linearGradient>
<linearGradient id="paint21_linear" x1="186.411" y1="44.0456" x2="186.411" y2="73.415" gradientUnits="userSpaceOnUse">
<stop stop-color="#B48409" stop-opacity="0"/>
<stop offset="0.9994" stop-color="#FF5353"/>
</linearGradient>
<linearGradient id="paint22_linear" x1="323.344" y1="44.0456" x2="323.344" y2="73.415" gradientUnits="userSpaceOnUse">
<stop stop-color="#B48409" stop-opacity="0"/>
<stop offset="0.9994" stop-color="#FF5353"/>
</linearGradient>
<linearGradient id="paint23_linear" x1="292.303" y1="58.614" x2="262.866" y2="58.614" gradientUnits="userSpaceOnUse">
<stop stop-color="#B48409" stop-opacity="0"/>
<stop offset="0.9994" stop-color="#FF5353"/>
</linearGradient>
<linearGradient id="paint24_linear" x1="86.9039" y1="33.57" x2="57.467" y2="33.57" gradientUnits="userSpaceOnUse">
<stop stop-color="#B48409" stop-opacity="0"/>
<stop offset="0.9994" stop-color="#FF5353"/>
</linearGradient>
<linearGradient id="paint25_linear" x1="26.656" y1="48.1394" x2="26.656" y2="18.77" gradientUnits="userSpaceOnUse">
<stop stop-color="#B48409" stop-opacity="0"/>
<stop offset="0.9994" stop-color="#FF5353"/>
</linearGradient>
<linearGradient id="paint26_linear" x1="163.589" y1="19.0006" x2="163.589" y2="48.37" gradientUnits="userSpaceOnUse">
<stop stop-color="#B48409" stop-opacity="0"/>
<stop offset="0.9994" stop-color="#FF5353"/>
</linearGradient>
<linearGradient id="paint27_linear" x1="103.342" y1="33.57" x2="132.779" y2="33.57" gradientUnits="userSpaceOnUse">
<stop stop-color="#B48409" stop-opacity="0"/>
<stop offset="0.9994" stop-color="#FF5353"/>
</linearGradient>
<linearGradient id="paint28_linear" x1="269.48" y1="33.57" x2="240.043" y2="33.57" gradientUnits="userSpaceOnUse">
<stop stop-color="#B48409" stop-opacity="0"/>
<stop offset="0.9994" stop-color="#FF5353"/>
</linearGradient>
<linearGradient id="paint29_linear" x1="209.233" y1="48.1394" x2="209.233" y2="18.77" gradientUnits="userSpaceOnUse">
<stop stop-color="#B48409" stop-opacity="0"/>
<stop offset="0.9994" stop-color="#FF5353"/>
</linearGradient>
<linearGradient id="paint30_linear" x1="346.166" y1="19.0006" x2="346.166" y2="48.37" gradientUnits="userSpaceOnUse">
<stop stop-color="#B48409" stop-opacity="0"/>
<stop offset="0.9994" stop-color="#FF5353"/>
</linearGradient>
<linearGradient id="paint31_linear" x1="285.919" y1="33.571" x2="315.356" y2="33.571" gradientUnits="userSpaceOnUse">
<stop stop-color="#B48409" stop-opacity="0"/>
<stop offset="0.9994" stop-color="#FF5353"/>
</linearGradient>
<linearGradient id="paint32_linear" x1="86.9039" y1="129.2" x2="57.467" y2="129.2" gradientUnits="userSpaceOnUse">
<stop stop-color="#B48409" stop-opacity="0"/>
<stop offset="0.9994" stop-color="#FF5353"/>
</linearGradient>
<linearGradient id="paint33_linear" x1="26.656" y1="143.769" x2="26.656" y2="114.4" gradientUnits="userSpaceOnUse">
<stop stop-color="#B48409" stop-opacity="0"/>
<stop offset="0.9994" stop-color="#FF5353"/>
</linearGradient>
<linearGradient id="paint34_linear" x1="163.589" y1="114.631" x2="163.589" y2="144" gradientUnits="userSpaceOnUse">
<stop stop-color="#B48409" stop-opacity="0"/>
<stop offset="0.9994" stop-color="#FF5353"/>
</linearGradient>
<linearGradient id="paint35_linear" x1="103.342" y1="129.2" x2="132.779" y2="129.2" gradientUnits="userSpaceOnUse">
<stop stop-color="#B48409" stop-opacity="0"/>
<stop offset="0.9994" stop-color="#FF5353"/>
</linearGradient>
<linearGradient id="paint36_linear" x1="269.48" y1="129.2" x2="240.043" y2="129.2" gradientUnits="userSpaceOnUse">
<stop stop-color="#B48409" stop-opacity="0"/>
<stop offset="0.9994" stop-color="#FF5353"/>
</linearGradient>
<linearGradient id="paint37_linear" x1="209.233" y1="143.769" x2="209.233" y2="114.4" gradientUnits="userSpaceOnUse">
<stop stop-color="#B48409" stop-opacity="0"/>
<stop offset="0.9994" stop-color="#FF5353"/>
</linearGradient>
<linearGradient id="paint38_linear" x1="346.166" y1="114.631" x2="346.166" y2="144" gradientUnits="userSpaceOnUse">
<stop stop-color="#B48409" stop-opacity="0"/>
<stop offset="0.9994" stop-color="#FF5353"/>
</linearGradient>
<linearGradient id="paint39_linear" x1="285.919" y1="129.201" x2="315.356" y2="129.201" gradientUnits="userSpaceOnUse">
<stop stop-color="#B48409" stop-opacity="0"/>
<stop offset="0.9994" stop-color="#FF5353"/>
</linearGradient>
<linearGradient id="paint40_linear" x1="57.6982" y1="81.385" x2="87.135" y2="81.385" gradientUnits="userSpaceOnUse">
<stop stop-color="#B48409" stop-opacity="0"/>
<stop offset="0.9994" stop-color="#FF5353"/>
</linearGradient>
<linearGradient id="paint41_linear" x1="26.656" y1="66.8156" x2="26.656" y2="96.185" gradientUnits="userSpaceOnUse">
<stop stop-color="#B48409" stop-opacity="0"/>
<stop offset="0.9994" stop-color="#FF5353"/>
</linearGradient>
<linearGradient id="paint42_linear" x1="163.589" y1="66.8156" x2="163.589" y2="96.185" gradientUnits="userSpaceOnUse">
<stop stop-color="#B48409" stop-opacity="0"/>
<stop offset="0.9994" stop-color="#FF5353"/>
</linearGradient>
<linearGradient id="paint43_linear" x1="132.548" y1="81.385" x2="103.111" y2="81.385" gradientUnits="userSpaceOnUse">
<stop stop-color="#B48409" stop-opacity="0"/>
<stop offset="0.9994" stop-color="#FF5353"/>
</linearGradient>
<linearGradient id="paint44_linear" x1="240.274" y1="81.385" x2="269.711" y2="81.385" gradientUnits="userSpaceOnUse">
<stop stop-color="#B48409" stop-opacity="0"/>
<stop offset="0.9994" stop-color="#FF5353"/>
</linearGradient>
<linearGradient id="paint45_linear" x1="209.233" y1="66.8156" x2="209.233" y2="96.185" gradientUnits="userSpaceOnUse">
<stop stop-color="#B48409" stop-opacity="0"/>
<stop offset="0.9994" stop-color="#FF5353"/>
</linearGradient>
<linearGradient id="paint46_linear" x1="346.166" y1="66.8156" x2="346.166" y2="96.185" gradientUnits="userSpaceOnUse">
<stop stop-color="#B48409" stop-opacity="0"/>
<stop offset="0.9994" stop-color="#FF5353"/>
</linearGradient>
<linearGradient id="paint47_linear" x1="315.125" y1="81.384" x2="285.688" y2="81.384" gradientUnits="userSpaceOnUse">
<stop stop-color="#B48409" stop-opacity="0"/>
<stop offset="0.9994" stop-color="#FF5353"/>
</linearGradient>
</defs>
</svg>
